<svg xmlns="http://www.w3.org/2000/svg" xmlns:xlink="http://www.w3.org/1999/xlink" width="294" height="199" viewBox="0 0 294 199">
    <defs>
        <path id="a" d="M.044.118h15.97v15.207H.043z"/>
        <path id="c" d="M0 .12h41.894v28.734H0z"/>
        <path id="e" d="M.1.12h25.33v28.734H.1z"/>
    </defs>
    <g fill="none" fill-rule="evenodd">
        <path fill="#293895" stroke="#D8DAE1" d="M.5.5v198h293V.5H.5z"/>
        <g transform="translate(141.78 71.078)">
            <mask id="b" fill="#fff">
                <use xlink:href="#a"/>
            </mask>
            <path fill="#FFF" d="M12.666 10.267a.716.716 0 0 1 .21-.645l2.812-2.689c.295-.281.4-.697.273-1.084a1.05 1.05 0 0 0-.862-.717L11.235 4.6a.722.722 0 0 1-.551-.399L8.98.711A1.051 1.051 0 0 0 8.03.118c-.409 0-.774.228-.952.593l-1.703 3.49a.722.722 0 0 1-.552.399L.96 5.132a1.05 1.05 0 0 0-.862.717c-.126.387-.022.802.273 1.084l2.812 2.69a.716.716 0 0 1 .21.644l-.685 3.819a1.057 1.057 0 0 0 1.54 1.113l3.441-1.828a.726.726 0 0 1 .682 0l3.44 1.828a1.059 1.059 0 0 0 1.541-1.114l-.685-3.818z" mask="url(#b)"/>
        </g>
        <path fill="#FFF" d="M100.296 106.144c-1.09 1.145-2.431 1.702-4.102 1.702-1.605 0-2.918-.567-4.016-1.733-1.12-1.189-1.665-2.685-1.665-4.573 0-1.873.534-3.35 1.63-4.516 1.075-1.142 2.392-1.697 4.027-1.697 1.69 0 3.043.548 4.134 1.675 1.104 1.141 1.641 2.618 1.641 4.514 0 1.948-.54 3.462-1.649 4.628m7.709-18.62h-3.684a2.671 2.671 0 0 0-2.418 1.545 12.345 12.345 0 0 0-2.202-1.23 12.227 12.227 0 0 0-4.842-.972c-3.703 0-6.89 1.409-9.472 4.187-2.556 2.75-3.852 6.302-3.852 10.556 0 4.119 1.338 7.622 3.977 10.411 2.66 2.812 5.868 4.238 9.535 4.238 1.64 0 3.19-.298 4.605-.884a11.93 11.93 0 0 0 2.098-1.144 2.661 2.661 0 0 0 2.57 1.966h3.685a2.655 2.655 0 0 0 2.659-2.644V90.169a2.655 2.655 0 0 0-2.659-2.645M132.252 105.651c-1.057 1.082-2.373 1.608-4.025 1.608-1.705 0-3.074-.544-4.186-1.663-1.117-1.124-1.66-2.542-1.66-4.338 0-1.721.53-3.1 1.62-4.217 1.08-1.106 2.424-1.643 4.108-1.643 1.717 0 3.069.527 4.133 1.61 1.073 1.093 1.595 2.498 1.595 4.297 0 1.832-.519 3.253-1.585 4.346m7.574-18.127h-3.66a2.659 2.659 0 0 0-2.437 1.584 12.594 12.594 0 0 0-2.406-1.335 12.239 12.239 0 0 0-4.677-.906c-3.493 0-6.542 1.244-9.06 3.697-2.76 2.693-4.16 6.283-4.16 10.67 0 4.108 1.319 7.562 3.918 10.267 2.615 2.721 5.863 4.1 9.656 4.1 1.729 0 3.31-.278 4.698-.829.59-.234 1.172-.533 1.741-.893.364 1.982-.48 3.3-.48 3.3-.336.659-1.796 2.258-5.06 2.387-1.6.063-3.649-.483-4.857-1.611a2.694 2.694 0 0 0-1.841-.739h-4.442c-.945 0-1.8.482-2.285 1.29a2.598 2.598 0 0 0-.065 2.593c.535.996 1.2 1.904 1.973 2.7 1.31 1.345 2.932 2.377 4.82 3.066 1.85.675 4.133 1.017 6.789 1.017 5.09 0 8.983-1.54 11.568-4.577 1.805-2.102 2.926-5.334 2.926-11.464V90.169a2.655 2.655 0 0 0-2.66-2.645M151.652 87.524h-3.685a2.655 2.655 0 0 0-2.658 2.645v22.788a2.655 2.655 0 0 0 2.658 2.645h3.685a2.655 2.655 0 0 0 2.659-2.645V90.17a2.655 2.655 0 0 0-2.66-2.645M180.323 88.515c-2.2-1.093-4.702-1.648-7.439-1.648-2.953 0-5.67.651-8.074 1.935-2.423 1.295-4.34 3.103-5.697 5.376-1.356 2.27-2.044 4.787-2.044 7.479 0 3.89 1.41 7.328 4.19 10.22 2.794 2.907 6.674 4.382 11.53 4.382 4.756 0 8.638-1.523 11.537-4.524a2.61 2.61 0 0 0 .72-2.088 2.645 2.645 0 0 0-1.145-1.917l-2.837-1.931a2.655 2.655 0 0 0-3.319.253c-1.296 1.207-2.968 1.794-5.111 1.794-2.005 0-3.561-.558-4.758-1.705-1.183-1.134-1.758-2.574-1.758-4.402 0-1.89.603-3.388 1.842-4.578 1.251-1.203 2.873-1.787 4.957-1.787 1.147 0 2.146.172 2.97.513.616.255 1.263.683 1.92 1.272a2.68 2.68 0 0 0 3.07.361l3.048-1.667a2.642 2.642 0 0 0 .688-4.095 14.335 14.335 0 0 0-4.29-3.243M206.202 106.112c-1.102 1.167-2.421 1.734-4.033 1.734-1.68 0-3.027-.557-4.122-1.704-1.113-1.165-1.653-2.678-1.653-4.626 0-1.896.538-3.372 1.646-4.512 1.095-1.128 2.446-1.677 4.129-1.677 1.659 0 2.99.556 4.068 1.698 1.1 1.166 1.635 2.643 1.635 4.515 0 1.887-.546 3.383-1.67 4.572m-2.688-19.245c-1.709 0-3.34.327-4.848.972a12.56 12.56 0 0 0-2.225 1.24 2.668 2.668 0 0 0-2.423-1.555h-3.637a2.655 2.655 0 0 0-2.659 2.645v32.128a2.655 2.655 0 0 0 2.659 2.644h3.637a2.655 2.655 0 0 0 2.659-2.644v-8.01c.673.446 1.353.81 2.03 1.09 1.423.585 2.977.882 4.618.882 3.67 0 6.881-1.426 9.544-4.237 2.642-2.79 3.982-6.293 3.982-10.412 0-4.254-1.297-7.806-3.857-10.556-2.585-2.778-5.775-4.187-9.48-4.187M225.733 87.524h-3.685a2.655 2.655 0 0 0-2.659 2.645v22.788a2.655 2.655 0 0 0 2.66 2.645h3.684a2.655 2.655 0 0 0 2.659-2.645V90.17a2.655 2.655 0 0 0-2.66-2.645"/>
        <g transform="translate(37 86.748)">
            <mask id="d" fill="#fff">
                <use xlink:href="#c"/>
            </mask>
            <path fill="#FFF" d="M37.387 1.574C35.803.61 33.957.12 31.9.12c-1.965 0-3.807.445-5.475 1.321a11.332 11.332 0 0 0-3.053 2.357 9.317 9.317 0 0 0-2.565-2.318c-1.489-.902-3.175-1.36-5.01-1.36-1.763 0-3.42.337-4.924 1.002-.73.322-1.435.73-2.105 1.215A2.661 2.661 0 0 0 6.343.776H2.66a2.655 2.655 0 0 0-2.66 2.645V26.21a2.655 2.655 0 0 0 2.66 2.644h3.684a2.655 2.655 0 0 0 2.659-2.644V11.526c0-2.048 1.67-3.709 3.73-3.709 2.059 0 3.729 1.66 3.729 3.71l.009 5.235v9.374a2.728 2.728 0 0 0 2.732 2.718h3.462a2.728 2.728 0 0 0 2.732-2.718v-14.61c0-2.048 1.67-3.709 3.73-3.709s3.729 1.66 3.729 3.71v5.971h-.01v8.712a2.655 2.655 0 0 0 2.659 2.644h3.731a2.655 2.655 0 0 0 2.659-2.644v-13.6c0-3.277-.333-5.618-1.019-7.157-.71-1.595-1.884-2.9-3.488-3.879" mask="url(#d)"/>
        </g>
        <g transform="translate(231.396 86.748)">
            <mask id="f" fill="#fff">
                <use xlink:href="#e"/>
            </mask>
            <path fill="#FFF" d="M22.82 3.146l-.002-.002C20.802 1.137 18.318.12 15.433.12c-1.401 0-2.788.273-4.122.812-.771.312-1.598.766-2.464 1.354A2.65 2.65 0 0 0 6.444.776H2.759A2.655 2.655 0 0 0 .101 3.421v22.788a2.655 2.655 0 0 0 2.658 2.645h3.685a2.655 2.655 0 0 0 2.659-2.645v-8.727l.007-5.956c0-2.03 1.654-3.675 3.694-3.675 2.041 0 3.695 1.645 3.695 3.675v14.683a2.655 2.655 0 0 0 2.66 2.645h3.613a2.655 2.655 0 0 0 2.658-2.645v-15.5c0-3.275-.878-5.82-2.61-7.563" mask="url(#f)"/>
        </g>
    </g>
</svg>
